<mxfile host="app.diagrams.net" modified="2024-04-04T01:05:06.323Z" agent="Mozilla/5.0 (Windows NT 10.0; Win64; x64) AppleWebKit/537.36 (KHTML, like Gecko) Chrome/123.0.0.0 Safari/537.36 Edg/123.0.0.0" etag="AI5f6r5RMqKOz-mjDaVM" version="24.2.1" type="device">
  <diagram id="XkLgqCAv8x0d3-E4Erp8" name="http报文接收">
    <mxGraphModel dx="5903" dy="3455" grid="0" gridSize="10" guides="1" tooltips="1" connect="1" arrows="1" fold="1" page="1" pageScale="1" pageWidth="4681" pageHeight="3300" background="#ffffff" math="0" shadow="0">
      <root>
        <mxCell id="0" />
        <mxCell id="1" parent="0" />
        <mxCell id="Gj48FPJV3V5Ni_E1Kydo-1" value="&lt;font style=&quot;font-size: 14px;&quot;&gt;&lt;b&gt;浏览器端发出http连接请求&lt;/b&gt;&lt;/font&gt;" style="strokeWidth=2;html=1;shape=mxgraph.flowchart.terminator;whiteSpace=wrap;align=center;" vertex="1" parent="1">
          <mxGeometry x="2295.0699999999997" y="162" width="103" height="74" as="geometry" />
        </mxCell>
        <mxCell id="Gj48FPJV3V5Ni_E1Kydo-2" value="" style="endArrow=classic;html=1;rounded=0;strokeWidth=3;" edge="1" parent="1">
          <mxGeometry width="50" height="50" relative="1" as="geometry">
            <mxPoint x="2347.0699999999997" y="236" as="sourcePoint" />
            <mxPoint x="2347.0699999999997" y="280" as="targetPoint" />
          </mxGeometry>
        </mxCell>
        <mxCell id="Gj48FPJV3V5Ni_E1Kydo-8" value="" style="edgeStyle=orthogonalEdgeStyle;rounded=0;orthogonalLoop=1;jettySize=auto;html=1;" edge="1" parent="1" source="Gj48FPJV3V5Ni_E1Kydo-3" target="Gj48FPJV3V5Ni_E1Kydo-7">
          <mxGeometry relative="1" as="geometry" />
        </mxCell>
        <mxCell id="Gj48FPJV3V5Ni_E1Kydo-3" value="&lt;font style=&quot;font-size: 14px;&quot;&gt;&lt;b&gt;// 主线程创建http对象及内核事件表&lt;/b&gt;&lt;/font&gt;&lt;div&gt;&lt;div&gt;&lt;font style=&quot;&quot;&gt;&lt;span style=&quot;font-size: 14px;&quot;&gt;&lt;b&gt;http_conn* users=new http_conn[MAX_FD];&lt;/b&gt;&lt;/span&gt;&lt;br&gt;&lt;/font&gt;&lt;/div&gt;&lt;div&gt;&lt;font style=&quot;&quot;&gt;&lt;span style=&quot;font-size: 14px;&quot;&gt;&lt;b&gt;&lt;br&gt;&lt;/b&gt;&lt;/span&gt;&lt;/font&gt;&lt;/div&gt;&lt;div&gt;&lt;font style=&quot;font-size: 14px;&quot;&gt;&lt;b&gt;&lt;div style=&quot;&quot;&gt;epoll_event events[MAX_EVENT_NUMBER];&lt;/div&gt;&lt;div style=&quot;&quot;&gt;epollfd = epoll_create(5);&lt;/div&gt;&lt;div style=&quot;&quot;&gt;assert(epollfd != -1);&lt;/div&gt;&lt;/b&gt;&lt;/font&gt;&lt;/div&gt;&lt;/div&gt;" style="rounded=0;whiteSpace=wrap;html=1;strokeWidth=3;align=left;" vertex="1" parent="1">
          <mxGeometry x="2197.91" y="280" width="297.31" height="116" as="geometry" />
        </mxCell>
        <mxCell id="Gj48FPJV3V5Ni_E1Kydo-6" value="" style="endArrow=classic;html=1;rounded=0;strokeWidth=3;" edge="1" parent="1">
          <mxGeometry width="50" height="50" relative="1" as="geometry">
            <mxPoint x="2346.0699999999997" y="396" as="sourcePoint" />
            <mxPoint x="2346.0699999999997" y="440" as="targetPoint" />
          </mxGeometry>
        </mxCell>
        <mxCell id="Gj48FPJV3V5Ni_E1Kydo-7" value="&lt;div&gt;&lt;span style=&quot;font-size: 14px;&quot;&gt;&lt;b&gt;// 将listenfd放在epoll树上&lt;/b&gt;&lt;/span&gt;&lt;/div&gt;&lt;div&gt;&lt;span style=&quot;font-size: 14px;&quot;&gt;&lt;b&gt;addfd(epollfd, listenfd, false);&lt;/b&gt;&lt;/span&gt;&lt;/div&gt;&lt;div&gt;&lt;div style=&quot;&quot;&gt;&lt;span style=&quot;font-size: 14px;&quot;&gt;&lt;b&gt;/将上述epollfd赋值给http类对象的m_epollfd属性&lt;/b&gt;&lt;/span&gt;&lt;/div&gt;&lt;div style=&quot;&quot;&gt;&lt;span style=&quot;font-size: 14px;&quot;&gt;&lt;b&gt;http_conn::m_epollfd = epollfd;&lt;/b&gt;&lt;/span&gt;&lt;/div&gt;&lt;/div&gt;" style="rounded=0;whiteSpace=wrap;html=1;strokeWidth=3;align=left;" vertex="1" parent="1">
          <mxGeometry x="2185" y="442" width="323.15" height="86" as="geometry" />
        </mxCell>
        <mxCell id="Gj48FPJV3V5Ni_E1Kydo-9" value="" style="endArrow=classic;html=1;rounded=0;strokeWidth=3;" edge="1" parent="1">
          <mxGeometry width="50" height="50" relative="1" as="geometry">
            <mxPoint x="2346.06" y="530" as="sourcePoint" />
            <mxPoint x="2346.06" y="574" as="targetPoint" />
          </mxGeometry>
        </mxCell>
        <mxCell id="Gj48FPJV3V5Ni_E1Kydo-10" value="&lt;b&gt;&lt;font style=&quot;font-size: 14px;&quot;&gt;!stop_server&lt;/font&gt;&lt;/b&gt;" style="strokeWidth=2;html=1;shape=mxgraph.flowchart.decision;whiteSpace=wrap;" vertex="1" parent="1">
          <mxGeometry x="2251.8199999999997" y="574" width="189.49" height="67" as="geometry" />
        </mxCell>
        <mxCell id="Gj48FPJV3V5Ni_E1Kydo-11" value="" style="endArrow=classic;html=1;rounded=0;strokeWidth=3;" edge="1" parent="1">
          <mxGeometry width="50" height="50" relative="1" as="geometry">
            <mxPoint x="2346.06" y="641" as="sourcePoint" />
            <mxPoint x="2346.06" y="685" as="targetPoint" />
          </mxGeometry>
        </mxCell>
        <mxCell id="Gj48FPJV3V5Ni_E1Kydo-12" value="&lt;font style=&quot;font-size: 14px;&quot;&gt;&lt;b&gt;Y&lt;/b&gt;&lt;/font&gt;" style="text;html=1;align=center;verticalAlign=middle;resizable=0;points=[];autosize=1;strokeColor=none;fillColor=none;" vertex="1" parent="1">
          <mxGeometry x="2363.0699999999997" y="646" width="27" height="29" as="geometry" />
        </mxCell>
        <mxCell id="Gj48FPJV3V5Ni_E1Kydo-13" value="" style="endArrow=classic;html=1;rounded=0;strokeWidth=3;" edge="1" parent="1">
          <mxGeometry width="50" height="50" relative="1" as="geometry">
            <mxPoint x="2439.0699999999997" y="607" as="sourcePoint" />
            <mxPoint x="2843" y="688" as="targetPoint" />
            <Array as="points">
              <mxPoint x="2843.0699999999997" y="607" />
            </Array>
          </mxGeometry>
        </mxCell>
        <mxCell id="Gj48FPJV3V5Ni_E1Kydo-14" value="&lt;font style=&quot;font-size: 14px;&quot;&gt;&lt;b&gt;N&lt;/b&gt;&lt;/font&gt;" style="text;html=1;align=center;verticalAlign=middle;resizable=0;points=[];autosize=1;strokeColor=none;fillColor=none;" vertex="1" parent="1">
          <mxGeometry x="2498.0699999999997" y="574" width="28" height="29" as="geometry" />
        </mxCell>
        <mxCell id="Gj48FPJV3V5Ni_E1Kydo-16" value="&lt;div&gt;&lt;span style=&quot;font-size: 14px;&quot;&gt;&lt;b&gt;// 等待所监控文件描述符上有事件的产生&lt;/b&gt;&lt;/span&gt;&lt;/div&gt;&lt;div&gt;&lt;span style=&quot;font-size: 14px;&quot;&gt;&lt;b&gt;int number = epoll_wait(epollfd, events, MAX_EVENT_NUMBER, -1);&lt;/b&gt;&lt;/span&gt;&lt;/div&gt;" style="rounded=0;whiteSpace=wrap;html=1;strokeWidth=3;align=left;" vertex="1" parent="1">
          <mxGeometry x="2200.1499999999996" y="685" width="295.07" height="63" as="geometry" />
        </mxCell>
        <mxCell id="Gj48FPJV3V5Ni_E1Kydo-18" value="" style="endArrow=classic;html=1;rounded=0;strokeWidth=3;" edge="1" parent="1">
          <mxGeometry width="50" height="50" relative="1" as="geometry">
            <mxPoint x="2346.06" y="748" as="sourcePoint" />
            <mxPoint x="2346.06" y="792" as="targetPoint" />
          </mxGeometry>
        </mxCell>
        <mxCell id="Gj48FPJV3V5Ni_E1Kydo-19" value="&lt;b style=&quot;font-size: 14px;&quot;&gt;!(&lt;/b&gt;&lt;span style=&quot;font-size: 14px;&quot;&gt;&lt;b&gt;number &amp;lt; 0 &amp;amp;&amp;amp; errno != EINTR&lt;/b&gt;&lt;/span&gt;&lt;b style=&quot;font-size: 14px;&quot;&gt;)&lt;/b&gt;" style="strokeWidth=2;html=1;shape=mxgraph.flowchart.decision;whiteSpace=wrap;" vertex="1" parent="1">
          <mxGeometry x="2192.94" y="792" width="307.25" height="103" as="geometry" />
        </mxCell>
        <mxCell id="Gj48FPJV3V5Ni_E1Kydo-20" value="" style="endArrow=classic;html=1;rounded=0;strokeWidth=3;" edge="1" parent="1">
          <mxGeometry width="50" height="50" relative="1" as="geometry">
            <mxPoint x="2346.06" y="895" as="sourcePoint" />
            <mxPoint x="2346.06" y="939" as="targetPoint" />
          </mxGeometry>
        </mxCell>
        <mxCell id="Gj48FPJV3V5Ni_E1Kydo-21" value="&lt;font style=&quot;font-size: 14px;&quot;&gt;&lt;b&gt;Y&lt;/b&gt;&lt;/font&gt;" style="text;html=1;align=center;verticalAlign=middle;resizable=0;points=[];autosize=1;strokeColor=none;fillColor=none;" vertex="1" parent="1">
          <mxGeometry x="2351.0699999999997" y="895" width="27" height="29" as="geometry" />
        </mxCell>
        <mxCell id="Gj48FPJV3V5Ni_E1Kydo-22" value="" style="endArrow=classic;html=1;rounded=0;strokeWidth=3;" edge="1" parent="1">
          <mxGeometry width="50" height="50" relative="1" as="geometry">
            <mxPoint x="2495.22" y="843" as="sourcePoint" />
            <mxPoint x="2848" y="766" as="targetPoint" />
            <Array as="points">
              <mxPoint x="2848" y="843" />
            </Array>
          </mxGeometry>
        </mxCell>
        <mxCell id="Gj48FPJV3V5Ni_E1Kydo-23" value="&lt;font style=&quot;font-size: 14px;&quot;&gt;&lt;b&gt;N&lt;/b&gt;&lt;/font&gt;" style="text;html=1;align=center;verticalAlign=middle;resizable=0;points=[];autosize=1;strokeColor=none;fillColor=none;" vertex="1" parent="1">
          <mxGeometry x="2503.0699999999997" y="808" width="28" height="29" as="geometry" />
        </mxCell>
        <mxCell id="Gj48FPJV3V5Ni_E1Kydo-27" value="" style="edgeStyle=orthogonalEdgeStyle;rounded=0;orthogonalLoop=1;jettySize=auto;html=1;" edge="1" parent="1" source="Gj48FPJV3V5Ni_E1Kydo-24" target="Gj48FPJV3V5Ni_E1Kydo-26">
          <mxGeometry relative="1" as="geometry" />
        </mxCell>
        <mxCell id="Gj48FPJV3V5Ni_E1Kydo-24" value="&lt;span style=&quot;font-size: 14px;&quot;&gt;&lt;b&gt;i = 0&lt;/b&gt;&lt;/span&gt;" style="rounded=0;whiteSpace=wrap;html=1;strokeWidth=3;align=center;" vertex="1" parent="1">
          <mxGeometry x="2304.0699999999997" y="939" width="80.15" height="35" as="geometry" />
        </mxCell>
        <mxCell id="Gj48FPJV3V5Ni_E1Kydo-25" value="" style="endArrow=classic;html=1;rounded=0;strokeWidth=3;" edge="1" parent="1">
          <mxGeometry width="50" height="50" relative="1" as="geometry">
            <mxPoint x="2347.19" y="972" as="sourcePoint" />
            <mxPoint x="2347.19" y="1016" as="targetPoint" />
          </mxGeometry>
        </mxCell>
        <mxCell id="Gj48FPJV3V5Ni_E1Kydo-26" value="&lt;span style=&quot;font-size: 14px;&quot;&gt;&lt;b&gt;i &amp;lt; number&lt;/b&gt;&lt;/span&gt;" style="strokeWidth=2;html=1;shape=mxgraph.flowchart.decision;whiteSpace=wrap;" vertex="1" parent="1">
          <mxGeometry x="2267.18" y="1016" width="161.01" height="58" as="geometry" />
        </mxCell>
        <mxCell id="Gj48FPJV3V5Ni_E1Kydo-28" value="" style="endArrow=classic;html=1;rounded=0;strokeWidth=3;" edge="1" parent="1">
          <mxGeometry width="50" height="50" relative="1" as="geometry">
            <mxPoint x="2347.19" y="1074" as="sourcePoint" />
            <mxPoint x="2347.19" y="1118" as="targetPoint" />
          </mxGeometry>
        </mxCell>
        <mxCell id="Gj48FPJV3V5Ni_E1Kydo-29" value="&lt;div&gt;&lt;b style=&quot;&quot;&gt;&lt;font style=&quot;font-size: 14px;&quot;&gt;// 取出监听到的文件描述符号&lt;/font&gt;&lt;/b&gt;&lt;/div&gt;&lt;div&gt;&lt;span style=&quot;font-size: 14px;&quot;&gt;&lt;b&gt;int sockfd = events[i].data.fd&lt;/b&gt;&lt;/span&gt;&lt;br&gt;&lt;/div&gt;" style="rounded=0;whiteSpace=wrap;html=1;strokeWidth=3;align=center;" vertex="1" parent="1">
          <mxGeometry x="2217.51" y="1118" width="258.11" height="48" as="geometry" />
        </mxCell>
        <mxCell id="Gj48FPJV3V5Ni_E1Kydo-30" value="&lt;font style=&quot;font-size: 14px;&quot;&gt;&lt;b&gt;Y&lt;/b&gt;&lt;/font&gt;" style="text;html=1;align=center;verticalAlign=middle;resizable=0;points=[];autosize=1;strokeColor=none;fillColor=none;" vertex="1" parent="1">
          <mxGeometry x="2360.0699999999997" y="1074" width="27" height="29" as="geometry" />
        </mxCell>
        <mxCell id="Gj48FPJV3V5Ni_E1Kydo-31" value="" style="endArrow=classic;html=1;rounded=0;strokeWidth=3;entryX=0;entryY=0.5;entryDx=0;entryDy=0;entryPerimeter=0;" edge="1" parent="1" target="Gj48FPJV3V5Ni_E1Kydo-10">
          <mxGeometry width="50" height="50" relative="1" as="geometry">
            <mxPoint x="2266.1800000000003" y="1045" as="sourcePoint" />
            <mxPoint x="1990" y="519" as="targetPoint" />
            <Array as="points">
              <mxPoint x="1993" y="1050" />
              <mxPoint x="1993" y="608" />
            </Array>
          </mxGeometry>
        </mxCell>
        <mxCell id="Gj48FPJV3V5Ni_E1Kydo-32" value="&lt;font style=&quot;font-size: 14px;&quot;&gt;&lt;b&gt;N&lt;/b&gt;&lt;/font&gt;" style="text;html=1;align=center;verticalAlign=middle;resizable=0;points=[];autosize=1;strokeColor=none;fillColor=none;" vertex="1" parent="1">
          <mxGeometry x="2211.9999999999995" y="1006" width="28" height="29" as="geometry" />
        </mxCell>
        <mxCell id="Gj48FPJV3V5Ni_E1Kydo-34" value="&lt;span style=&quot;font-size: 14px;&quot;&gt;&lt;b&gt;sockfd == listenfd&lt;/b&gt;&lt;/span&gt;" style="strokeWidth=2;html=1;shape=mxgraph.flowchart.decision;whiteSpace=wrap;" vertex="1" parent="1">
          <mxGeometry x="1068" y="1335" width="161.01" height="58" as="geometry" />
        </mxCell>
        <mxCell id="Gj48FPJV3V5Ni_E1Kydo-36" value="" style="endArrow=classic;html=1;rounded=0;strokeWidth=3;" edge="1" parent="1">
          <mxGeometry width="50" height="50" relative="1" as="geometry">
            <mxPoint x="1147.95" y="1393" as="sourcePoint" />
            <mxPoint x="1147.95" y="1437" as="targetPoint" />
          </mxGeometry>
        </mxCell>
        <mxCell id="Gj48FPJV3V5Ni_E1Kydo-37" value="&lt;font style=&quot;font-size: 14px;&quot;&gt;&lt;b&gt;Y&lt;/b&gt;&lt;/font&gt;" style="text;html=1;align=center;verticalAlign=middle;resizable=0;points=[];autosize=1;strokeColor=none;fillColor=none;" vertex="1" parent="1">
          <mxGeometry x="1158.9999999999995" y="1393" width="27" height="29" as="geometry" />
        </mxCell>
        <mxCell id="Gj48FPJV3V5Ni_E1Kydo-38" value="&lt;div&gt;&lt;span style=&quot;font-size: 14px;&quot;&gt;&lt;b&gt;//&amp;nbsp;&lt;/b&gt;&lt;/span&gt;&lt;span style=&quot;background-color: initial; font-size: 14px;&quot;&gt;&lt;b&gt;处理新到的客户连接&lt;/b&gt;&lt;/span&gt;&lt;/div&gt;&lt;div&gt;&lt;div&gt;&lt;span style=&quot;font-size: 14px;&quot;&gt;&lt;b&gt;struct sockaddr_in client_address;&lt;/b&gt;&lt;/span&gt;&lt;/div&gt;&lt;div&gt;&lt;span style=&quot;font-size: 14px;&quot;&gt;&lt;b&gt;socklen_t client_addrlength = sizeof(client_address);&lt;/b&gt;&lt;/span&gt;&lt;/div&gt;&lt;/div&gt;" style="rounded=0;whiteSpace=wrap;html=1;strokeWidth=3;align=left;" vertex="1" parent="1">
          <mxGeometry x="960.49" y="1439" width="376.03" height="71" as="geometry" />
        </mxCell>
        <mxCell id="Gj48FPJV3V5Ni_E1Kydo-42" value="&lt;span style=&quot;font-size: 14px;&quot;&gt;&lt;b&gt;LT水平触发&lt;/b&gt;&lt;/span&gt;" style="strokeWidth=2;html=1;shape=mxgraph.flowchart.decision;whiteSpace=wrap;" vertex="1" parent="1">
          <mxGeometry x="371.77" y="1652" width="161.01" height="58" as="geometry" />
        </mxCell>
        <mxCell id="Gj48FPJV3V5Ni_E1Kydo-43" value="&lt;span style=&quot;font-size: 14px;&quot;&gt;&lt;b&gt;ET非阻塞边缘触发&lt;/b&gt;&lt;/span&gt;" style="strokeWidth=2;html=1;shape=mxgraph.flowchart.decision;whiteSpace=wrap;" vertex="1" parent="1">
          <mxGeometry x="1756" y="1646" width="161.01" height="58" as="geometry" />
        </mxCell>
        <mxCell id="Gj48FPJV3V5Ni_E1Kydo-44" value="" style="group" vertex="1" connectable="0" parent="1">
          <mxGeometry x="450" y="1509" width="1387.25" height="137" as="geometry" />
        </mxCell>
        <mxCell id="Gj48FPJV3V5Ni_E1Kydo-39" value="" style="strokeWidth=2;html=1;shape=mxgraph.flowchart.annotation_2;align=left;labelPosition=right;pointerEvents=1;direction=south;" vertex="1" parent="Gj48FPJV3V5Ni_E1Kydo-44">
          <mxGeometry width="1387.25" height="93" as="geometry" />
        </mxCell>
        <mxCell id="Gj48FPJV3V5Ni_E1Kydo-40" value="" style="endArrow=classic;html=1;rounded=0;strokeWidth=3;" edge="1" parent="Gj48FPJV3V5Ni_E1Kydo-44">
          <mxGeometry width="50" height="50" relative="1" as="geometry">
            <mxPoint x="1384.456879194631" y="93" as="sourcePoint" />
            <mxPoint x="1384.456879194631" y="137" as="targetPoint" />
          </mxGeometry>
        </mxCell>
        <mxCell id="Gj48FPJV3V5Ni_E1Kydo-41" value="" style="endArrow=classic;html=1;rounded=0;strokeWidth=3;" edge="1" parent="Gj48FPJV3V5Ni_E1Kydo-44">
          <mxGeometry width="50" height="50" relative="1" as="geometry">
            <mxPoint x="-0.004846596356742339" y="88" as="sourcePoint" />
            <mxPoint x="-0.004846596356742339" y="132" as="targetPoint" />
          </mxGeometry>
        </mxCell>
        <mxCell id="Gj48FPJV3V5Ni_E1Kydo-45" value="" style="endArrow=classic;html=1;rounded=0;strokeWidth=3;" edge="1" parent="1">
          <mxGeometry width="50" height="50" relative="1" as="geometry">
            <mxPoint x="451.52" y="1710" as="sourcePoint" />
            <mxPoint x="451.52" y="1754" as="targetPoint" />
          </mxGeometry>
        </mxCell>
        <mxCell id="Gj48FPJV3V5Ni_E1Kydo-46" value="&lt;font style=&quot;font-size: 14px;&quot;&gt;&lt;b&gt;Y&lt;/b&gt;&lt;/font&gt;" style="text;html=1;align=center;verticalAlign=middle;resizable=0;points=[];autosize=1;strokeColor=none;fillColor=none;" vertex="1" parent="1">
          <mxGeometry x="467.7699999999995" y="1715" width="27" height="29" as="geometry" />
        </mxCell>
        <mxCell id="Gj48FPJV3V5Ni_E1Kydo-47" value="" style="endArrow=classic;html=1;rounded=0;strokeWidth=3;" edge="1" parent="1">
          <mxGeometry width="50" height="50" relative="1" as="geometry">
            <mxPoint x="1835.98" y="1704" as="sourcePoint" />
            <mxPoint x="1835.98" y="1748" as="targetPoint" />
          </mxGeometry>
        </mxCell>
        <mxCell id="Gj48FPJV3V5Ni_E1Kydo-48" value="&lt;font style=&quot;font-size: 14px;&quot;&gt;&lt;b&gt;Y&lt;/b&gt;&lt;/font&gt;" style="text;html=1;align=center;verticalAlign=middle;resizable=0;points=[];autosize=1;strokeColor=none;fillColor=none;" vertex="1" parent="1">
          <mxGeometry x="1862.9999999999995" y="1709" width="27" height="29" as="geometry" />
        </mxCell>
        <mxCell id="Gj48FPJV3V5Ni_E1Kydo-49" value="&lt;div&gt;&lt;span style=&quot;font-size: 14px;&quot;&gt;&lt;b&gt;int connfd = accept(listenfd, (struct sockaddr *)&amp;amp;client_address, &amp;amp;client_addrlength);&lt;/b&gt;&lt;/span&gt;&lt;/div&gt;" style="rounded=0;whiteSpace=wrap;html=1;strokeWidth=3;align=center;" vertex="1" parent="1">
          <mxGeometry x="295" y="1755" width="314.55" height="49" as="geometry" />
        </mxCell>
        <mxCell id="Gj48FPJV3V5Ni_E1Kydo-52" value="" style="group" vertex="1" connectable="0" parent="1">
          <mxGeometry x="192.76999999999998" y="1805" width="521.5" height="85" as="geometry" />
        </mxCell>
        <mxCell id="Gj48FPJV3V5Ni_E1Kydo-53" value="" style="strokeWidth=2;html=1;shape=mxgraph.flowchart.annotation_2;align=left;labelPosition=right;pointerEvents=1;direction=south;" vertex="1" parent="Gj48FPJV3V5Ni_E1Kydo-52">
          <mxGeometry width="521.5" height="57.7007299270073" as="geometry" />
        </mxCell>
        <mxCell id="Gj48FPJV3V5Ni_E1Kydo-54" value="" style="endArrow=classic;html=1;rounded=0;strokeWidth=3;" edge="1" parent="Gj48FPJV3V5Ni_E1Kydo-52">
          <mxGeometry width="50" height="50" relative="1" as="geometry">
            <mxPoint x="520.45" y="57.7007299270073" as="sourcePoint" />
            <mxPoint x="520.45" y="85" as="targetPoint" />
          </mxGeometry>
        </mxCell>
        <mxCell id="Gj48FPJV3V5Ni_E1Kydo-55" value="" style="endArrow=classic;html=1;rounded=0;strokeWidth=3;" edge="1" parent="Gj48FPJV3V5Ni_E1Kydo-52">
          <mxGeometry width="50" height="50" relative="1" as="geometry">
            <mxPoint y="57.7007299270073" as="sourcePoint" />
            <mxPoint y="85" as="targetPoint" />
          </mxGeometry>
        </mxCell>
        <mxCell id="Gj48FPJV3V5Ni_E1Kydo-56" value="&lt;span style=&quot;font-size: 14px;&quot;&gt;&lt;b&gt;connfd &amp;lt; 0&lt;/b&gt;&lt;/span&gt;" style="strokeWidth=2;html=1;shape=mxgraph.flowchart.decision;whiteSpace=wrap;" vertex="1" parent="1">
          <mxGeometry x="111.76999999999998" y="1890" width="161.01" height="58" as="geometry" />
        </mxCell>
        <mxCell id="Gj48FPJV3V5Ni_E1Kydo-57" value="&lt;span style=&quot;font-size: 14px;&quot;&gt;&lt;b&gt;http_conn::m_user_count &amp;gt;= MAX_FD&lt;/b&gt;&lt;/span&gt;" style="strokeWidth=2;html=1;shape=mxgraph.flowchart.decision;whiteSpace=wrap;" vertex="1" parent="1">
          <mxGeometry x="612.28" y="1890" width="200" height="69" as="geometry" />
        </mxCell>
        <mxCell id="Gj48FPJV3V5Ni_E1Kydo-58" value="" style="endArrow=classic;html=1;rounded=0;strokeWidth=3;" edge="1" parent="1">
          <mxGeometry width="50" height="50" relative="1" as="geometry">
            <mxPoint x="711.74" y="1959" as="sourcePoint" />
            <mxPoint x="711.74" y="2003" as="targetPoint" />
          </mxGeometry>
        </mxCell>
        <mxCell id="Gj48FPJV3V5Ni_E1Kydo-59" value="&lt;font style=&quot;font-size: 14px;&quot;&gt;&lt;b&gt;Y&lt;/b&gt;&lt;/font&gt;" style="text;html=1;align=center;verticalAlign=middle;resizable=0;points=[];autosize=1;strokeColor=none;fillColor=none;" vertex="1" parent="1">
          <mxGeometry x="722.7699999999995" y="1959" width="27" height="29" as="geometry" />
        </mxCell>
        <mxCell id="Gj48FPJV3V5Ni_E1Kydo-60" value="&lt;div&gt;&lt;span style=&quot;font-size: 14px;&quot;&gt;&lt;b&gt;show_error(connfd, &quot;Internal server busy&quot;);&lt;/b&gt;&lt;/span&gt;&lt;/div&gt;&lt;div style=&quot;text-align: left;&quot;&gt;&lt;span style=&quot;font-size: 14px;&quot;&gt;&lt;b&gt;continue;&lt;/b&gt;&lt;/span&gt;&lt;/div&gt;" style="rounded=0;whiteSpace=wrap;html=1;strokeWidth=3;align=center;" vertex="1" parent="1">
          <mxGeometry x="555" y="2004" width="314.55" height="49" as="geometry" />
        </mxCell>
        <mxCell id="Gj48FPJV3V5Ni_E1Kydo-61" value="" style="endArrow=classic;html=1;rounded=0;strokeWidth=3;" edge="1" parent="1">
          <mxGeometry width="50" height="50" relative="1" as="geometry">
            <mxPoint x="190.76999999999998" y="1948" as="sourcePoint" />
            <mxPoint x="190.76999999999998" y="1992" as="targetPoint" />
          </mxGeometry>
        </mxCell>
        <mxCell id="Gj48FPJV3V5Ni_E1Kydo-62" value="&lt;font style=&quot;font-size: 14px;&quot;&gt;&lt;b&gt;Y&lt;/b&gt;&lt;/font&gt;" style="text;html=1;align=center;verticalAlign=middle;resizable=0;points=[];autosize=1;strokeColor=none;fillColor=none;" vertex="1" parent="1">
          <mxGeometry x="196.76999999999953" y="1948" width="27" height="29" as="geometry" />
        </mxCell>
        <mxCell id="Gj48FPJV3V5Ni_E1Kydo-63" value="&lt;div&gt;&lt;b style=&quot;font-size: 14px; text-align: left; background-color: initial;&quot;&gt;continue;&lt;/b&gt;&lt;br&gt;&lt;/div&gt;" style="rounded=0;whiteSpace=wrap;html=1;strokeWidth=3;align=center;" vertex="1" parent="1">
          <mxGeometry x="35" y="1991" width="314.55" height="49" as="geometry" />
        </mxCell>
        <mxCell id="Gj48FPJV3V5Ni_E1Kydo-64" value="" style="strokeWidth=2;html=1;shape=mxgraph.flowchart.annotation_2;align=left;labelPosition=right;pointerEvents=1;direction=north;" vertex="1" parent="1">
          <mxGeometry x="183.26999999999998" y="2053" width="538" height="55" as="geometry" />
        </mxCell>
        <mxCell id="Gj48FPJV3V5Ni_E1Kydo-65" value="&lt;div style=&quot;text-align: left;&quot;&gt;&lt;span style=&quot;font-size: 14px;&quot;&gt;&lt;b&gt;users[connfd].init(connfd, client_address);&lt;/b&gt;&lt;/span&gt;&lt;br&gt;&lt;/div&gt;" style="rounded=0;whiteSpace=wrap;html=1;strokeWidth=3;align=center;" vertex="1" parent="1">
          <mxGeometry x="290.77" y="2110" width="314.55" height="49" as="geometry" />
        </mxCell>
        <mxCell id="Gj48FPJV3V5Ni_E1Kydo-66" value="&lt;span style=&quot;font-size: 14px;&quot;&gt;&lt;b&gt;1&lt;/b&gt;&lt;/span&gt;" style="strokeWidth=2;html=1;shape=mxgraph.flowchart.decision;whiteSpace=wrap;" vertex="1" parent="1">
          <mxGeometry x="1756" y="1749" width="161.01" height="58" as="geometry" />
        </mxCell>
        <mxCell id="Gj48FPJV3V5Ni_E1Kydo-68" value="&lt;div&gt;&lt;span style=&quot;font-size: 14px;&quot;&gt;&lt;b&gt;int connfd = accept(listenfd, (struct sockaddr *)&amp;amp;client_address, &amp;amp;client_addrlength);&lt;/b&gt;&lt;/span&gt;&lt;/div&gt;" style="rounded=0;whiteSpace=wrap;html=1;strokeWidth=3;align=center;" vertex="1" parent="1">
          <mxGeometry x="1675" y="1850" width="314.55" height="49" as="geometry" />
        </mxCell>
        <mxCell id="Gj48FPJV3V5Ni_E1Kydo-69" value="" style="group" vertex="1" connectable="0" parent="1">
          <mxGeometry x="1572.77" y="1900" width="521.5" height="85" as="geometry" />
        </mxCell>
        <mxCell id="Gj48FPJV3V5Ni_E1Kydo-70" value="" style="strokeWidth=2;html=1;shape=mxgraph.flowchart.annotation_2;align=left;labelPosition=right;pointerEvents=1;direction=south;" vertex="1" parent="Gj48FPJV3V5Ni_E1Kydo-69">
          <mxGeometry width="521.5" height="57.7007299270073" as="geometry" />
        </mxCell>
        <mxCell id="Gj48FPJV3V5Ni_E1Kydo-71" value="" style="endArrow=classic;html=1;rounded=0;strokeWidth=3;" edge="1" parent="Gj48FPJV3V5Ni_E1Kydo-69">
          <mxGeometry width="50" height="50" relative="1" as="geometry">
            <mxPoint x="520.45" y="57.7007299270073" as="sourcePoint" />
            <mxPoint x="520.45" y="85" as="targetPoint" />
          </mxGeometry>
        </mxCell>
        <mxCell id="Gj48FPJV3V5Ni_E1Kydo-72" value="" style="endArrow=classic;html=1;rounded=0;strokeWidth=3;" edge="1" parent="Gj48FPJV3V5Ni_E1Kydo-69">
          <mxGeometry width="50" height="50" relative="1" as="geometry">
            <mxPoint y="57.7007299270073" as="sourcePoint" />
            <mxPoint y="85" as="targetPoint" />
          </mxGeometry>
        </mxCell>
        <mxCell id="Gj48FPJV3V5Ni_E1Kydo-83" value="" style="endArrow=classic;html=1;rounded=0;strokeWidth=3;" edge="1" parent="Gj48FPJV3V5Ni_E1Kydo-69">
          <mxGeometry width="50" height="50" relative="1" as="geometry">
            <mxPoint x="264.23" y="-95" as="sourcePoint" />
            <mxPoint x="264.23" y="-51" as="targetPoint" />
          </mxGeometry>
        </mxCell>
        <mxCell id="Gj48FPJV3V5Ni_E1Kydo-73" value="&lt;span style=&quot;font-size: 14px;&quot;&gt;&lt;b&gt;connfd &amp;lt; 0&lt;/b&gt;&lt;/span&gt;" style="strokeWidth=2;html=1;shape=mxgraph.flowchart.decision;whiteSpace=wrap;" vertex="1" parent="1">
          <mxGeometry x="1491.77" y="1985" width="161.01" height="58" as="geometry" />
        </mxCell>
        <mxCell id="Gj48FPJV3V5Ni_E1Kydo-74" value="&lt;span style=&quot;font-size: 14px;&quot;&gt;&lt;b&gt;http_conn::m_user_count &amp;gt;= MAX_FD&lt;/b&gt;&lt;/span&gt;" style="strokeWidth=2;html=1;shape=mxgraph.flowchart.decision;whiteSpace=wrap;" vertex="1" parent="1">
          <mxGeometry x="1992.2799999999997" y="1985" width="200" height="69" as="geometry" />
        </mxCell>
        <mxCell id="Gj48FPJV3V5Ni_E1Kydo-75" value="" style="endArrow=classic;html=1;rounded=0;strokeWidth=3;" edge="1" parent="1">
          <mxGeometry width="50" height="50" relative="1" as="geometry">
            <mxPoint x="2091.74" y="2054" as="sourcePoint" />
            <mxPoint x="2091.74" y="2098" as="targetPoint" />
          </mxGeometry>
        </mxCell>
        <mxCell id="Gj48FPJV3V5Ni_E1Kydo-76" value="&lt;font style=&quot;font-size: 14px;&quot;&gt;&lt;b&gt;Y&lt;/b&gt;&lt;/font&gt;" style="text;html=1;align=center;verticalAlign=middle;resizable=0;points=[];autosize=1;strokeColor=none;fillColor=none;" vertex="1" parent="1">
          <mxGeometry x="2102.7699999999995" y="2054" width="27" height="29" as="geometry" />
        </mxCell>
        <mxCell id="Gj48FPJV3V5Ni_E1Kydo-77" value="&lt;div&gt;&lt;span style=&quot;font-size: 14px;&quot;&gt;&lt;b&gt;show_error(connfd, &quot;Internal server busy&quot;);&lt;/b&gt;&lt;/span&gt;&lt;/div&gt;&lt;div style=&quot;text-align: left;&quot;&gt;&lt;span style=&quot;font-size: 14px;&quot;&gt;&lt;b&gt;continue;&lt;/b&gt;&lt;/span&gt;&lt;/div&gt;" style="rounded=0;whiteSpace=wrap;html=1;strokeWidth=3;align=center;" vertex="1" parent="1">
          <mxGeometry x="1882.0100000000002" y="2095" width="314.55" height="49" as="geometry" />
        </mxCell>
        <mxCell id="Gj48FPJV3V5Ni_E1Kydo-78" value="" style="endArrow=classic;html=1;rounded=0;strokeWidth=3;" edge="1" parent="1">
          <mxGeometry width="50" height="50" relative="1" as="geometry">
            <mxPoint x="1570.77" y="2043" as="sourcePoint" />
            <mxPoint x="1570.77" y="2087" as="targetPoint" />
          </mxGeometry>
        </mxCell>
        <mxCell id="Gj48FPJV3V5Ni_E1Kydo-79" value="&lt;font style=&quot;font-size: 14px;&quot;&gt;&lt;b&gt;Y&lt;/b&gt;&lt;/font&gt;" style="text;html=1;align=center;verticalAlign=middle;resizable=0;points=[];autosize=1;strokeColor=none;fillColor=none;" vertex="1" parent="1">
          <mxGeometry x="1576.7699999999995" y="2043" width="27" height="29" as="geometry" />
        </mxCell>
        <mxCell id="Gj48FPJV3V5Ni_E1Kydo-80" value="&lt;div&gt;&lt;b style=&quot;font-size: 14px; text-align: left; background-color: initial;&quot;&gt;continue;&lt;/b&gt;&lt;br&gt;&lt;/div&gt;" style="rounded=0;whiteSpace=wrap;html=1;strokeWidth=3;align=center;" vertex="1" parent="1">
          <mxGeometry x="1415" y="2086" width="314.55" height="49" as="geometry" />
        </mxCell>
        <mxCell id="Gj48FPJV3V5Ni_E1Kydo-81" value="" style="strokeWidth=2;html=1;shape=mxgraph.flowchart.annotation_2;align=left;labelPosition=right;pointerEvents=1;direction=north;" vertex="1" parent="1">
          <mxGeometry x="1563.27" y="2148" width="538" height="55" as="geometry" />
        </mxCell>
        <mxCell id="Gj48FPJV3V5Ni_E1Kydo-82" value="&lt;div style=&quot;text-align: left;&quot;&gt;&lt;span style=&quot;font-size: 14px;&quot;&gt;&lt;b&gt;users[connfd].init(connfd, client_address);&lt;/b&gt;&lt;/span&gt;&lt;br&gt;&lt;/div&gt;" style="rounded=0;whiteSpace=wrap;html=1;strokeWidth=3;align=center;" vertex="1" parent="1">
          <mxGeometry x="1670.77" y="2205" width="314.55" height="49" as="geometry" />
        </mxCell>
        <mxCell id="Gj48FPJV3V5Ni_E1Kydo-84" value="&lt;font style=&quot;font-size: 14px;&quot;&gt;&lt;b&gt;Y&lt;/b&gt;&lt;/font&gt;" style="text;html=1;align=center;verticalAlign=middle;resizable=0;points=[];autosize=1;strokeColor=none;fillColor=none;" vertex="1" parent="1">
          <mxGeometry x="1850.9999999999995" y="1805" width="27" height="29" as="geometry" />
        </mxCell>
        <mxCell id="Gj48FPJV3V5Ni_E1Kydo-85" value="" style="endArrow=classic;html=1;rounded=0;strokeWidth=3;entryX=1;entryY=0.5;entryDx=0;entryDy=0;entryPerimeter=0;" edge="1" parent="1" target="Gj48FPJV3V5Ni_E1Kydo-66">
          <mxGeometry width="50" height="50" relative="1" as="geometry">
            <mxPoint x="1831.7399999999998" y="2254" as="sourcePoint" />
            <mxPoint x="2301" y="1785" as="targetPoint" />
            <Array as="points">
              <mxPoint x="1832" y="2311" />
              <mxPoint x="2301" y="2315" />
              <mxPoint x="2312" y="1778" />
            </Array>
          </mxGeometry>
        </mxCell>
        <mxCell id="Gj48FPJV3V5Ni_E1Kydo-86" value="" style="endArrow=classic;html=1;rounded=0;strokeWidth=3;" edge="1" parent="1" target="Gj48FPJV3V5Ni_E1Kydo-34">
          <mxGeometry width="50" height="50" relative="1" as="geometry">
            <mxPoint x="2347.02" y="1164" as="sourcePoint" />
            <mxPoint x="1206" y="1265" as="targetPoint" />
            <Array as="points">
              <mxPoint x="2347" y="1270" />
              <mxPoint x="1149" y="1258" />
            </Array>
          </mxGeometry>
        </mxCell>
        <mxCell id="Gj48FPJV3V5Ni_E1Kydo-87" value="" style="endArrow=classic;html=1;rounded=0;strokeWidth=3;" edge="1" parent="1">
          <mxGeometry width="50" height="50" relative="1" as="geometry">
            <mxPoint x="2345" y="1270" as="sourcePoint" />
            <mxPoint x="2587" y="1348" as="targetPoint" />
            <Array as="points">
              <mxPoint x="2587" y="1270" />
            </Array>
          </mxGeometry>
        </mxCell>
        <mxCell id="Gj48FPJV3V5Ni_E1Kydo-88" value="&lt;span style=&quot;font-size: 14px;&quot;&gt;&lt;b&gt;events[i].events &amp;amp; (EPOLLRDHUP | EPOLLHUP | EPOLLERR)&lt;/b&gt;&lt;/span&gt;" style="strokeWidth=2;html=1;shape=mxgraph.flowchart.decision;whiteSpace=wrap;" vertex="1" parent="1">
          <mxGeometry x="2459" y="1346" width="254" height="79" as="geometry" />
        </mxCell>
        <mxCell id="Gj48FPJV3V5Ni_E1Kydo-90" value="" style="endArrow=classic;html=1;rounded=0;strokeWidth=3;" edge="1" parent="1">
          <mxGeometry width="50" height="50" relative="1" as="geometry">
            <mxPoint x="2585.43" y="1425" as="sourcePoint" />
            <mxPoint x="2585" y="1473" as="targetPoint" />
          </mxGeometry>
        </mxCell>
        <mxCell id="Gj48FPJV3V5Ni_E1Kydo-92" value="&lt;font style=&quot;font-size: 14px;&quot;&gt;&lt;b&gt;Y&lt;/b&gt;&lt;/font&gt;" style="text;html=1;align=center;verticalAlign=middle;resizable=0;points=[];autosize=1;strokeColor=none;fillColor=none;" vertex="1" parent="1">
          <mxGeometry x="2602.9999999999995" y="1428" width="27" height="29" as="geometry" />
        </mxCell>
        <mxCell id="Gj48FPJV3V5Ni_E1Kydo-93" value="&lt;span style=&quot;font-size: 14px;&quot;&gt;&lt;b&gt;//处理异常事件&lt;/b&gt;&lt;/span&gt;&lt;div&gt;&lt;span style=&quot;font-size: 14px;&quot;&gt;&lt;b&gt;//服务器端关闭连接&lt;/b&gt;&lt;/span&gt;&lt;br&gt;&lt;div&gt;&lt;span style=&quot;font-size: 14px;&quot;&gt;&lt;b&gt;&lt;br&gt;&lt;/b&gt;&lt;/span&gt;&lt;/div&gt;&lt;/div&gt;" style="rounded=0;whiteSpace=wrap;html=1;strokeWidth=3;align=left;" vertex="1" parent="1">
          <mxGeometry x="2515" y="1473" width="133.93" height="71" as="geometry" />
        </mxCell>
        <mxCell id="Gj48FPJV3V5Ni_E1Kydo-94" value="" style="endArrow=classic;html=1;rounded=0;strokeWidth=3;" edge="1" parent="1">
          <mxGeometry width="50" height="50" relative="1" as="geometry">
            <mxPoint x="2585" y="1270" as="sourcePoint" />
            <mxPoint x="3058" y="1345" as="targetPoint" />
            <Array as="points">
              <mxPoint x="3058" y="1270" />
            </Array>
          </mxGeometry>
        </mxCell>
        <mxCell id="Gj48FPJV3V5Ni_E1Kydo-95" value="&lt;span style=&quot;font-size: 14px;&quot;&gt;&lt;b&gt;//处理客户连接上接收到的数据&lt;/b&gt;&lt;/span&gt;&lt;br&gt;&lt;div&gt;&lt;span style=&quot;font-size: 14px;&quot;&gt;&lt;b&gt;events[i].events &amp;amp; EPOLLIN&lt;/b&gt;&lt;/span&gt;&lt;br&gt;&lt;/div&gt;" style="strokeWidth=2;html=1;shape=mxgraph.flowchart.decision;whiteSpace=wrap;" vertex="1" parent="1">
          <mxGeometry x="3375" y="1343" width="254" height="79" as="geometry" />
        </mxCell>
        <mxCell id="Gj48FPJV3V5Ni_E1Kydo-96" value="&lt;font style=&quot;font-size: 14px;&quot;&gt;&lt;b&gt;Y&lt;/b&gt;&lt;/font&gt;" style="text;html=1;align=center;verticalAlign=middle;resizable=0;points=[];autosize=1;strokeColor=none;fillColor=none;" vertex="1" parent="1">
          <mxGeometry x="3077.9999999999995" y="1434" width="27" height="29" as="geometry" />
        </mxCell>
        <mxCell id="Gj48FPJV3V5Ni_E1Kydo-97" value="&lt;div&gt;&lt;div&gt;&lt;span style=&quot;font-size: 14px;&quot;&gt;&lt;b&gt;//处理信号&lt;/b&gt;&lt;/span&gt;&lt;br&gt;&lt;/div&gt;&lt;/div&gt;" style="rounded=0;whiteSpace=wrap;html=1;strokeWidth=3;align=left;" vertex="1" parent="1">
          <mxGeometry x="3001" y="1470" width="133.93" height="71" as="geometry" />
        </mxCell>
        <mxCell id="Gj48FPJV3V5Ni_E1Kydo-98" value="" style="endArrow=classic;html=1;rounded=0;strokeWidth=3;" edge="1" parent="1">
          <mxGeometry width="50" height="50" relative="1" as="geometry">
            <mxPoint x="3062" y="1422" as="sourcePoint" />
            <mxPoint x="3062" y="1466" as="targetPoint" />
          </mxGeometry>
        </mxCell>
        <mxCell id="Gj48FPJV3V5Ni_E1Kydo-99" value="" style="endArrow=classic;html=1;rounded=0;strokeWidth=3;" edge="1" parent="1">
          <mxGeometry width="50" height="50" relative="1" as="geometry">
            <mxPoint x="3030" y="1270" as="sourcePoint" />
            <mxPoint x="3503" y="1345" as="targetPoint" />
            <Array as="points">
              <mxPoint x="3503" y="1270" />
            </Array>
          </mxGeometry>
        </mxCell>
        <mxCell id="Gj48FPJV3V5Ni_E1Kydo-100" value="&lt;span style=&quot;font-size: 14px;&quot;&gt;&lt;b&gt;(sockfd == pipefd[0]) &amp;amp;&amp;amp; (events[i].events &amp;amp; EPOLLIN)&lt;/b&gt;&lt;/span&gt;" style="strokeWidth=2;html=1;shape=mxgraph.flowchart.decision;whiteSpace=wrap;" vertex="1" parent="1">
          <mxGeometry x="2943" y="1353" width="254" height="79" as="geometry" />
        </mxCell>
        <mxCell id="Gj48FPJV3V5Ni_E1Kydo-102" value="" style="endArrow=classic;html=1;rounded=0;strokeWidth=3;" edge="1" parent="1">
          <mxGeometry width="50" height="50" relative="1" as="geometry">
            <mxPoint x="3505" y="1420.5" as="sourcePoint" />
            <mxPoint x="3505" y="1464.5" as="targetPoint" />
          </mxGeometry>
        </mxCell>
        <mxCell id="Gj48FPJV3V5Ni_E1Kydo-103" value="&lt;font style=&quot;font-size: 14px;&quot;&gt;&lt;b&gt;Y&lt;/b&gt;&lt;/font&gt;" style="text;html=1;align=center;verticalAlign=middle;resizable=0;points=[];autosize=1;strokeColor=none;fillColor=none;" vertex="1" parent="1">
          <mxGeometry x="3524.9999999999995" y="1422" width="27" height="29" as="geometry" />
        </mxCell>
        <mxCell id="Gj48FPJV3V5Ni_E1Kydo-105" value="&lt;div&gt;&lt;span style=&quot;font-size: 14px;&quot;&gt;&lt;b&gt;//读入对应缓冲区&lt;/b&gt;&lt;/span&gt;&lt;br&gt;&lt;/div&gt;&lt;div&gt;&lt;span style=&quot;font-size: 14px;&quot;&gt;&lt;b&gt;users[sockfd].read_once()&lt;/b&gt;&lt;/span&gt;&lt;br&gt;&lt;/div&gt;" style="strokeWidth=2;html=1;shape=mxgraph.flowchart.decision;whiteSpace=wrap;" vertex="1" parent="1">
          <mxGeometry x="3380" y="1462" width="254" height="79" as="geometry" />
        </mxCell>
        <mxCell id="Gj48FPJV3V5Ni_E1Kydo-106" value="" style="endArrow=classic;html=1;rounded=0;strokeWidth=3;" edge="1" parent="1">
          <mxGeometry width="50" height="50" relative="1" as="geometry">
            <mxPoint x="3506.29" y="1541" as="sourcePoint" />
            <mxPoint x="3506.29" y="1585" as="targetPoint" />
          </mxGeometry>
        </mxCell>
        <mxCell id="Gj48FPJV3V5Ni_E1Kydo-107" value="&lt;font style=&quot;font-size: 14px;&quot;&gt;&lt;b&gt;Y&lt;/b&gt;&lt;/font&gt;" style="text;html=1;align=center;verticalAlign=middle;resizable=0;points=[];autosize=1;strokeColor=none;fillColor=none;" vertex="1" parent="1">
          <mxGeometry x="3519.9999999999995" y="1541" width="27" height="29" as="geometry" />
        </mxCell>
        <mxCell id="Gj48FPJV3V5Ni_E1Kydo-108" value="&lt;div&gt;&lt;div&gt;&lt;div&gt;&lt;span style=&quot;font-size: 14px;&quot;&gt;&lt;b&gt;//若监测到读事件，将该事件放入请求队列&lt;/b&gt;&lt;/span&gt;&lt;/div&gt;&lt;div&gt;&lt;span style=&quot;font-size: 14px;&quot;&gt;&lt;b&gt;pool-&amp;gt;append(users + sockfd);&lt;/b&gt;&lt;/span&gt;&lt;/div&gt;&lt;/div&gt;&lt;/div&gt;" style="rounded=0;whiteSpace=wrap;html=1;strokeWidth=3;align=left;" vertex="1" parent="1">
          <mxGeometry x="3368.51" y="1587" width="276.97" height="71" as="geometry" />
        </mxCell>
        <mxCell id="Gj48FPJV3V5Ni_E1Kydo-109" value="" style="endArrow=classic;html=1;rounded=0;strokeWidth=3;" edge="1" parent="1">
          <mxGeometry width="50" height="50" relative="1" as="geometry">
            <mxPoint x="3629" y="1504" as="sourcePoint" />
            <mxPoint x="3878" y="1577" as="targetPoint" />
            <Array as="points">
              <mxPoint x="3878" y="1501" />
            </Array>
          </mxGeometry>
        </mxCell>
        <mxCell id="Gj48FPJV3V5Ni_E1Kydo-110" value="&lt;font style=&quot;font-size: 14px;&quot;&gt;&lt;b&gt;N&lt;/b&gt;&lt;/font&gt;" style="text;html=1;align=center;verticalAlign=middle;resizable=0;points=[];autosize=1;strokeColor=none;fillColor=none;" vertex="1" parent="1">
          <mxGeometry x="3677" y="1465" width="28" height="29" as="geometry" />
        </mxCell>
        <mxCell id="Gj48FPJV3V5Ni_E1Kydo-111" value="&lt;span style=&quot;font-size: 14px;&quot;&gt;&lt;b&gt;//服务器关闭连接&lt;/b&gt;&lt;/span&gt;" style="rounded=0;whiteSpace=wrap;html=1;strokeWidth=3;align=left;" vertex="1" parent="1">
          <mxGeometry x="3741" y="1581" width="276.97" height="71" as="geometry" />
        </mxCell>
        <mxCell id="Gj48FPJV3V5Ni_E1Kydo-113" value="&lt;div style=&quot;text-align: center;&quot;&gt;&lt;b style=&quot;font-size: 14px; background-color: initial;&quot;&gt;Exit&lt;/b&gt;&lt;br&gt;&lt;/div&gt;" style="rounded=0;whiteSpace=wrap;html=1;strokeWidth=3;align=left;" vertex="1" parent="1">
          <mxGeometry x="2805" y="699" width="70.07" height="35" as="geometry" />
        </mxCell>
        <mxCell id="Gj48FPJV3V5Ni_E1Kydo-114" value="&lt;div&gt;&lt;div&gt;&lt;span style=&quot;font-size: 14px;&quot;&gt;&lt;b&gt;i += 1&lt;/b&gt;&lt;/span&gt;&lt;/div&gt;&lt;/div&gt;" style="rounded=0;whiteSpace=wrap;html=1;strokeWidth=3;align=center;" vertex="1" parent="1">
          <mxGeometry x="2280.7200000000003" y="2564" width="133.93" height="71" as="geometry" />
        </mxCell>
        <mxCell id="Gj48FPJV3V5Ni_E1Kydo-115" value="" style="endArrow=classic;html=1;rounded=0;strokeWidth=3;" edge="1" parent="1">
          <mxGeometry width="50" height="50" relative="1" as="geometry">
            <mxPoint x="453.55" y="2159" as="sourcePoint" />
            <mxPoint x="2344" y="2562" as="targetPoint" />
            <Array as="points">
              <mxPoint x="454" y="2481" />
              <mxPoint x="2344" y="2481" />
            </Array>
          </mxGeometry>
        </mxCell>
        <mxCell id="Gj48FPJV3V5Ni_E1Kydo-116" value="" style="endArrow=none;html=1;rounded=0;strokeWidth=3;startArrow=none;startFill=0;strokeColor=default;endFill=0;" edge="1" parent="1">
          <mxGeometry width="50" height="50" relative="1" as="geometry">
            <mxPoint x="1756" y="1778" as="sourcePoint" />
            <mxPoint x="1331" y="2481" as="targetPoint" />
            <Array as="points">
              <mxPoint x="1336" y="1778" />
            </Array>
          </mxGeometry>
        </mxCell>
        <mxCell id="Gj48FPJV3V5Ni_E1Kydo-117" value="&lt;font style=&quot;font-size: 14px;&quot;&gt;&lt;b&gt;N&lt;/b&gt;&lt;/font&gt;" style="text;html=1;align=center;verticalAlign=middle;resizable=0;points=[];autosize=1;strokeColor=none;fillColor=none;" vertex="1" parent="1">
          <mxGeometry x="1679" y="1738" width="28" height="29" as="geometry" />
        </mxCell>
        <mxCell id="Gj48FPJV3V5Ni_E1Kydo-118" value="" style="endArrow=classic;html=1;rounded=0;strokeWidth=3;entryX=1;entryY=0.5;entryDx=0;entryDy=0;entryPerimeter=0;" edge="1" parent="1" target="Gj48FPJV3V5Ni_E1Kydo-26">
          <mxGeometry width="50" height="50" relative="1" as="geometry">
            <mxPoint x="2414.65" y="2596" as="sourcePoint" />
            <mxPoint x="2400.47" y="2159" as="targetPoint" />
            <Array as="points">
              <mxPoint x="4266" y="2596" />
              <mxPoint x="4266" y="1061" />
            </Array>
          </mxGeometry>
        </mxCell>
        <mxCell id="Gj48FPJV3V5Ni_E1Kydo-119" value="" style="endArrow=none;html=1;rounded=0;strokeWidth=3;startArrow=none;startFill=0;endFill=0;" edge="1" parent="1">
          <mxGeometry width="50" height="50" relative="1" as="geometry">
            <mxPoint x="2585.8399999999997" y="1544" as="sourcePoint" />
            <mxPoint x="2342" y="2481" as="targetPoint" />
            <Array as="points">
              <mxPoint x="2586" y="2481" />
            </Array>
          </mxGeometry>
        </mxCell>
        <mxCell id="Gj48FPJV3V5Ni_E1Kydo-120" value="" style="endArrow=none;html=1;rounded=0;strokeWidth=3;startArrow=none;startFill=0;endFill=0;" edge="1" parent="1">
          <mxGeometry width="50" height="50" relative="1" as="geometry">
            <mxPoint x="3064.8399999999997" y="1541" as="sourcePoint" />
            <mxPoint x="2586" y="2481" as="targetPoint" />
            <Array as="points">
              <mxPoint x="3065" y="2478" />
            </Array>
          </mxGeometry>
        </mxCell>
        <mxCell id="Gj48FPJV3V5Ni_E1Kydo-121" value="" style="endArrow=none;html=1;rounded=0;strokeWidth=3;startArrow=none;startFill=0;endFill=0;exitX=0.5;exitY=1;exitDx=0;exitDy=0;" edge="1" parent="1" source="Gj48FPJV3V5Ni_E1Kydo-108">
          <mxGeometry width="50" height="50" relative="1" as="geometry">
            <mxPoint x="3530.8399999999997" y="1538" as="sourcePoint" />
            <mxPoint x="3052" y="2478" as="targetPoint" />
            <Array as="points">
              <mxPoint x="3507" y="2478" />
            </Array>
          </mxGeometry>
        </mxCell>
        <mxCell id="Gj48FPJV3V5Ni_E1Kydo-122" value="" style="endArrow=none;html=1;rounded=0;strokeWidth=3;startArrow=none;startFill=0;endFill=0;exitX=0.5;exitY=1;exitDx=0;exitDy=0;" edge="1" parent="1" source="Gj48FPJV3V5Ni_E1Kydo-111">
          <mxGeometry width="50" height="50" relative="1" as="geometry">
            <mxPoint x="3946" y="1658.5" as="sourcePoint" />
            <mxPoint x="3491" y="2478.5" as="targetPoint" />
            <Array as="points">
              <mxPoint x="3886" y="2475" />
            </Array>
          </mxGeometry>
        </mxCell>
      </root>
    </mxGraphModel>
  </diagram>
</mxfile>
